<svg xmlns="http://www.w3.org/2000/svg" width="32" height="32" viewBox="0 0 32 32" fill="none">
  <g clip-path="url(#clip0_45_13)">
    <mask id="mask0_45_13" style="mask-type:luminance" maskUnits="userSpaceOnUse" x="0" y="0" width="32" height="32">
      <path d="M32 0H0V32H32V0Z" fill="white"/>
    </mask>
    <g mask="url(#mask0_45_13)">
      <path fill-rule="evenodd" clip-rule="evenodd" d="M13.5043 0L21.4634 4.59671L20.2609 6.68406L19.5077 6.24844L5.28644 30.8701L3.56211 31.5961L3.25354 31.4192L18.2189 5.50425L16.6035 4.57402L1.64265 30.4889L1.29779 30.2893L0 25.3205L0.839478 23.941L2.76801 24.1452L2.06012 21.9989L2.85876 20.692L4.88712 20.8826L5.75383 19.4305L4.46512 17.4022L5.23653 16.0635L7.78673 16.5944L8.5899 15.2513L7.10153 12.8327L13.055 2.52297L12.3018 2.08735L13.5043 0Z" fill="#CD8E33"/>
      <path fill-rule="evenodd" clip-rule="evenodd" d="M21.1553 6.07153L32.1683 32.0001H25.0123L20.3067 21.3636H12.3203L14.0174 18.4277H19.0089L16.8399 13.5406L21.1553 6.07153Z" fill="#111111"/>
    </g>
  </g>
  <defs>
    <clipPath id="clip0_45_13">
      <rect width="32" height="32" fill="white"/>
    </clipPath>
  </defs>
</svg>
